<?xml version="1.0" encoding="UTF-8"?>
<!DOCTYPE svg PUBLIC "-//W3C//DTD SVG 1.1//EN" "http://www.w3.org/Graphics/SVG/1.1/DTD/svg11.dtd">
<!-- Creator: CorelDRAW 2019 (64-Bit) -->
<svg xmlns="http://www.w3.org/2000/svg" xml:space="preserve" width="209.973mm" height="297.011mm" version="1.1" style="shape-rendering:geometricPrecision; text-rendering:geometricPrecision; image-rendering:optimizeQuality; fill-rule:evenodd; clip-rule:evenodd"
viewBox="0 0 20997.33 29696.23"
 xmlns:xlink="http://www.w3.org/1999/xlink"
 xmlns:xodm="http://www.corel.com/coreldraw/odm/2003">
 <defs>
  <style type="text/css">
   <![CDATA[
    .fil0 {fill:black;fill-rule:nonzero}
   ]]>
  </style>
 </defs>
 <g id="Layer_x0020_1">
  <metadata id="CorelCorpID_0Corel-Layer"/>
  <path class="fil0" d="M9239.88 12841.35l0 -1235.58 755.53 726.45c20.51,20.5 41.28,42.4 62.63,65.68 21.06,23.27 43.23,49.6 66.53,78.72l0 -824.28 177.93 0 0 1235.57 -770.22 -740.02c-20.51,-20.23 -40.46,-41.3 -59.59,-63.48 -19.41,-22.15 -37.42,-45.44 -54.88,-69.84l0 826.77 -177.93 0zm251.1 1526.03l331.48 0 -121.95 -271.07c-6.91,-17.19 -14.4,-37.14 -21.88,-59.59 -7.48,-22.45 -15.24,-47.39 -22.73,-75.1 -6.38,26.04 -13.32,50.16 -20.8,72.61 -7.21,22.45 -14.69,43.22 -22.18,62.08l-121.94 271.07zm534.37 467.28l-134.7 -305.98 -471.17 0 -138.03 305.98 -202.87 0 575.66 -1235.57 575.12 1235.57 -203.99 0zm1301.53 -238.07l154.1 -71.23c14.69,52.93 41.58,93.39 80.67,121.12 38.79,27.99 88.68,41.83 149.37,41.83 57.66,0 103.12,-16.07 137.19,-47.94 33.82,-31.88 50.73,-74.56 50.73,-128.04 0,-69.84 -57.92,-132.2 -174.06,-186.81 -16.37,-8.03 -28.84,-14.14 -37.43,-17.74 -131.1,-64.02 -218.4,-121.67 -261.91,-173.51 -43.52,-51.83 -65.41,-115.02 -65.41,-189.58 0,-97.01 32.99,-175.43 98.66,-235.57 65.7,-60.16 152.16,-90.1 258.88,-90.1 87.58,0 161.03,16.92 220.05,50.73 59.04,33.81 99.78,82.32 122.5,145.5l-150.76 78.15c-23.85,-37.42 -49.89,-64.85 -78.43,-82.02 -28.56,-17.46 -61.26,-26.06 -98.13,-26.06 -51.83,0 -93.4,13.59 -123.87,40.73 -30.78,26.89 -46.02,63.2 -46.02,108.65 0,71.52 67.35,138.31 201.77,199.83 10.25,4.99 18.29,8.88 24.4,11.37 117.52,54.33 198.15,107.27 241.96,158.8 43.77,51.83 65.68,116.42 65.68,193.74 0,112.53 -35.48,202.05 -106.44,268.31 -70.95,66.22 -166.84,99.5 -287.68,99.5 -101.16,0 -184.04,-23.3 -248.9,-69.84 -64.57,-46.57 -106.98,-113.1 -126.93,-199.83z"/>
 </g>
</svg>
