<?xml version="1.0" encoding="UTF-8"?>
<!DOCTYPE svg PUBLIC "-//W3C//DTD SVG 1.1//EN" "http://www.w3.org/Graphics/SVG/1.1/DTD/svg11.dtd">
<!-- Creator: CorelDRAW 2019 (64-Bit) -->
<svg xmlns="http://www.w3.org/2000/svg" xml:space="preserve" width="46px" height="65px" version="1.1" style="shape-rendering:geometricPrecision; text-rendering:geometricPrecision; image-rendering:optimizeQuality; fill-rule:evenodd; clip-rule:evenodd"
viewBox="0 0 46 65.06"
 xmlns:xlink="http://www.w3.org/1999/xlink"
 xmlns:xodm="http://www.corel.com/coreldraw/odm/2003">
 <defs>
  <style type="text/css">
   <![CDATA[
    .fil0 {fill:black;fill-rule:nonzero}
   ]]>
  </style>
 </defs>
 <g id="Layer_x0020_1">
  <metadata id="CorelCorpID_0Corel-Layer"/>
  <path class="fil0" d="M19.95 31.82l0 -0.45 0.28 0.26c0,0.01 0.01,0.02 0.02,0.03 0.01,0.01 0.02,0.02 0.02,0.03l0 -0.31 0.07 0 0 0.46 -0.28 -0.27c-0.01,-0.01 -0.02,-0.02 -0.03,-0.03 0,-0.01 -0.01,-0.01 -0.02,-0.02l0 0.3 -0.06 0zm0.09 0.56l0.12 0 -0.04 -0.1c0,0 -0.01,-0.01 -0.01,-0.02 0,-0.01 -0.01,-0.02 -0.01,-0.03 0,0.01 0,0.02 -0.01,0.03 0,0.01 0,0.02 0,0.02l-0.05 0.1zm0.2 0.18l-0.05 -0.12 -0.18 0 -0.05 0.12 -0.07 0 0.21 -0.46 0.21 0.46 -0.07 0zm0.48 -0.09l0.05 -0.03c0.01,0.02 0.02,0.04 0.03,0.05 0.02,0.01 0.04,0.01 0.06,0.01 0.02,0 0.04,0 0.05,-0.01 0.01,-0.02 0.02,-0.03 0.02,-0.05 0,-0.03 -0.02,-0.05 -0.07,-0.07 0,0 -0.01,-0.01 -0.01,-0.01 -0.05,-0.02 -0.08,-0.04 -0.1,-0.06 -0.01,-0.02 -0.02,-0.04 -0.02,-0.07 0,-0.04 0.01,-0.07 0.04,-0.09 0.02,-0.02 0.05,-0.03 0.09,-0.03 0.03,0 0.06,0 0.08,0.02 0.02,0.01 0.04,0.03 0.05,0.05l-0.06 0.03c-0.01,-0.01 -0.02,-0.02 -0.03,-0.03 -0.01,-0.01 -0.02,-0.01 -0.03,-0.01 -0.02,0 -0.04,0 -0.05,0.01 -0.01,0.01 -0.02,0.03 -0.02,0.04 0,0.03 0.03,0.06 0.08,0.08 0,0 0.01,0 0.01,0 0.04,0.02 0.07,0.04 0.09,0.06 0.01,0.02 0.02,0.04 0.02,0.07 0,0.04 -0.01,0.08 -0.04,0.1 -0.02,0.03 -0.06,0.04 -0.1,0.04 -0.04,0 -0.07,-0.01 -0.1,-0.03 -0.02,-0.01 -0.03,-0.04 -0.04,-0.07z"/>
 </g>
</svg>
